<svg xmlns="http://www.w3.org/2000/svg" width="106" height="102">
  <symbol width="49" height="49" id="button">
    <g fill="none" fill-rule="evenodd">
      <circle fill="#FFF" cx="24.5" cy="24.5" r="24.5"/>
      <g transform="translate(16 17)">
        <path stroke="#000" stroke-width="2" stroke-linecap="round" stroke-linejoin="round" d="M8 0l7.017 7.017L8.035 14"/>
        <rect fill="#262625" y="6" width="15" height="2" rx="1"/>
      </g>
    </g>
  </symbol>
  <symbol width="18" height="17" id="lang">
    <path d="M9.698 10.695l-2.075-2.05C9.069 7.035 10.403 5.928 11 4h2V2H8V.013H6V2H0v2h9c-.551 1.577-1.287 2.345-2.464 3.652C5.776 6.806 5.498 5.972 5 5H3c.596 1.332 1.428 2.505 2.45 3.64l-4.155 4.106 1.156 1.156 4.085-4.085L8.5 12.5l1.198-1.805zm4.6-4.146h-1.634l-3.677 9.804h1.634l.92-2.45h3.88l.92 2.45h1.633L14.298 6.55zm-2.145 5.72l1.328-3.543 1.328 3.542h-2.656z"/>
  </symbol>
  <symbol width="18" height="12" id="menu">
    <g fill-rule="evenodd">
      <rect width="18" height="2" rx="1"/>
      <rect y="5" width="18" height="2" rx="1"/>
      <rect y="10" width="18" height="2" rx="1"/>
    </g>
  </symbol>
  <symbol xmlns:xlink="http://www.w3.org/1999/xlink" width="106" height="24" id="logo">
    <defs>
      <path id="a" d="M4.789.19H.292v4.306h4.497z"/>
    </defs>
    <g fill="none" fill-rule="evenodd">
      <path d="M7.415 5.996c-1.65 0-3.014.933-3.564 1.985h-.048v-1.65H0v11.912h3.947v-6.458c0-1.363.717-2.56 2.105-2.56 1.411 0 1.77 1.197 1.77 2.512v6.506h3.946v-7.367c0-2.392-1.148-4.88-4.353-4.88" fill="#000" fill-rule="nonzero"/>
      <g transform="translate(66 .185)">
        <mask id="b" fill="#fff">
          <use xlink:href="#a"/>
        </mask>
        <path d="M2.54 4.496c1.244 0 2.249-.933 2.249-2.152C4.789 1.147 3.784.19 2.54.19 1.273.19.292 1.195.292 2.344c0 1.171.98 2.152 2.248 2.152" fill="#000" fill-rule="nonzero" mask="url(#b)"/>
      </g>
      <path d="M90.268 10.88c.094-1.209 1.185-2.252 2.679-2.252 1.541 0 2.323 1.02 2.323 2.252h-5.002zm-39.76 2.413v.015c0 1.454-.868 2.391-2.415 2.391-.774 0-1.664-.304-1.664-1.195 0-.603.372-.974.919-1.211.707-.307 1.715-.383 2.667-.383h.492v.383zM34.4 15.163c-1.311 0-2.21-.808-2.581-1.87h5.253c-.387 1.078-1.334 1.87-2.672 1.87zm0-5.992c1.268 0 2.193.723 2.613 1.73H31.86c.39-1.015 1.268-1.73 2.54-1.73zm-14.392-.543c1.54 0 2.323 1.02 2.323 2.252h-5.003c.095-1.209 1.186-2.252 2.68-2.252zm84.51 2.273h-5.787c-.528-3.134-2.771-4.953-5.808-4.953-3.134 0-5.668 1.89-6.251 4.953h-2.499l1.959-4.977h-4.33l-1.617 4.977-.777 2.392-.203.62h-.074l-.202-.62-.777-2.392-1.618-4.977h-4.477l1.958 4.977h-3.513V5.965h-3.923v4.936h-5.23V8.935h2.826V5.963H61.35V2.8h-3.89v3.164h-1.907v2.972h1.932V10.9h-3.511c-.274-3.394-1.8-4.953-5.318-4.953-1.898 0-3.844.68-5.204 1.97l1.946 2.085c.703-.656 1.782-1.195 2.883-1.195 1.195 0 2.11.54 2.11 1.688v.187c-1.026 0-2.113.054-3.135.218h-6.293V6.328H37.29v1.516h-.047c-.83-1.256-2.298-1.848-3.767-1.848-3.08 0-5.037 2.192-5.503 4.905h-2.181c-.528-3.134-2.772-4.953-5.808-4.953-3.58 0-6.378 2.467-6.378 6.331 0 3.984 2.94 6.236 6.496 6.236 2.395 0 4.245-.901 5.36-2.513l-2.704-1.707c-.522.71-1.375 1.233-2.608 1.233-1.4 0-2.703-.925-2.822-2.23h8.56v-.005h2.06c.416 2.765 2.39 4.95 5.552 4.95 1.563 0 2.843-.616 3.577-1.564h.071v.71c0 1.967-1.066 3.294-3.34 3.294-1.327 0-2.771-.498-3.908-1.492l-1.943 2.77c1.587 1.185 4.003 1.848 6.064 1.848 4.193 0 6.94-2.179 6.94-6.798v-3.718h2.197c-.168.387-.27.823-.27 1.328 0 2.743 2.392 3.657 4.244 3.657 1.382 0 2.718-.562 3.305-1.523h.07v1.54h3.516v-5.002h3.461v.715c0 2.56 1.063 4.275 4.276 4.275.845 0 1.763-.169 2.295-.362l-.049-2.899c-.29.12-.773.194-1.16.194-1.135 0-1.497-.58-1.497-1.692v-.231h5.23v4.95h3.923v-4.95h4.455l1.948 4.95h4.378l1.949-4.95h3.388c.459 3.346 3.18 5.222 6.422 5.222 2.395 0 4.244-.901 5.359-2.513l-2.704-1.707c-.521.71-1.375 1.233-2.608 1.233-1.4 0-2.703-.925-2.821-2.23h8.56v-.005h5.69a1.196 1.196 0 0 0 0-2.392z" fill="#000" fill-rule="nonzero"/>
    </g>
  </symbol>
</svg>
