<?xml version="1.0" encoding="UTF-8"?>
<svg width="106px" height="24px" viewBox="0 0 106 24" version="1.1" xmlns="http://www.w3.org/2000/svg" xmlns:xlink="http://www.w3.org/1999/xlink">
    <!-- Generator: Sketch 49 (51002) - http://www.bohemiancoding.com/sketch -->
    <title>negative-logo-black</title>
    <desc>Created with Sketch.</desc>
    <defs>
        <polygon id="path-1" points="4.788675 0.1905 0.291675 0.1905 0.291675 4.4961 4.788675 4.4961"></polygon>
    </defs>
    <g id="Symbols" stroke="none" stroke-width="1" fill="none" fill-rule="evenodd">
        <g id="Header-Tablet" transform="translate(-40.000000, -40.000000)">
            <g id="negative-logo-black">
                <g transform="translate(40.000000, 40.000000)">
                    <g id="Logo">
                        <g id="Variant-2">
                            <g id="Main-page">
                                <g id="Footer">
                                    <g id="Logo">
                                        <path d="M7.4152875,5.9962125 C5.7645375,5.9962125 4.4014125,6.9292125 3.8509125,7.9814625 L3.8032875,7.9814625 L3.8032875,6.3310875 L3.74999994e-05,6.3310875 L3.74999994e-05,18.2433376 L3.9465375,18.2433376 L3.9465375,11.7847125 C3.9465375,10.4215875 4.6642875,9.2253375 6.0517875,9.2253375 C7.4632875,9.2253375 7.8217875,10.4215875 7.8217875,11.7370875 L7.8217875,18.2433376 L11.7682875,18.2433376 L11.7682875,10.8757125 C11.7682875,8.4839625 10.6204125,5.9962125 7.4152875,5.9962125" id="Fill-1" fill="#000000" fill-rule="nonzero"></path>
                                        <g id="Group-5" transform="translate(66.000000, 0.184537)">
                                            <g id="Fill-3-Clipped">
                                                <mask id="mask-2" fill="white">
                                                    <use xlink:href="#path-1"></use>
                                                </mask>
                                                <g id="path-1"></g>
                                                <path d="M2.540175,4.4961 C3.78405,4.4961 4.788675,3.5631 4.788675,2.3436 C4.788675,1.14735 3.78405,0.19035 2.540175,0.19035 C1.272675,0.19035 0.291675,1.19535 0.291675,2.3436 C0.291675,3.515475 1.272675,4.4961 2.540175,4.4961" id="Fill-3" fill="#000000" fill-rule="nonzero" mask="url(#mask-2)"></path>
                                            </g>
                                        </g>
                                        <path d="M90.2675624,10.880175 C90.3624374,9.671175 91.4533124,8.627925 92.9465624,8.627925 C94.4881874,8.627925 95.2704376,9.647175 95.2704376,10.880175 L90.2675624,10.880175 Z M50.5070624,13.292925 L50.5070624,13.3083 C50.5070624,14.762175 49.6396874,15.6993 48.0928124,15.6993 C47.3191874,15.6993 46.4285624,15.3948 46.4285624,14.504175 C46.4285624,13.901175 46.8009374,13.529925 47.3476874,13.292925 C48.0549374,12.986175 49.0625624,12.91005 50.0146874,12.91005 L50.5070624,12.91005 L50.5070624,13.292925 Z M34.4004374,15.163425 C33.0886874,15.163425 32.1894374,14.35455 31.8189374,13.292925 L37.0715624,13.292925 C36.6845624,14.371425 35.7376874,15.163425 34.4004374,15.163425 L34.4004374,15.163425 Z M34.4004374,9.17055 C35.6679374,9.17055 36.5934374,9.89355 37.0130624,10.9008 L31.8598124,10.9008 C32.2498124,9.88605 33.1280624,9.17055 34.4004374,9.17055 L34.4004374,9.17055 Z M20.0075624,8.627925 C21.5488124,8.627925 22.3314374,9.647175 22.3314374,10.880175 L17.3281876,10.880175 C17.4234374,9.671175 18.5139374,8.627925 20.0075624,8.627925 L20.0075624,8.627925 Z M104.518312,10.9008 L98.7305624,10.9008 C98.2029374,7.766925 95.9596874,5.948175 92.9233124,5.948175 C89.7894374,5.948175 87.2548124,7.8378 86.6716874,10.9008 L84.1730624,10.9008 L86.1316874,5.924175 L81.8026874,5.924175 L80.1849374,10.9008 L79.4075624,13.292925 L79.2054374,13.913925 L79.1311874,13.913925 L78.9294374,13.292925 L78.1516874,10.9008 L76.5339374,5.924175 L72.0568124,5.924175 L74.0150624,10.9008 L70.5016874,10.9008 L70.5016874,5.965425 L66.5788124,5.965425 L66.5788124,10.9008 L61.3490624,10.9008 L61.3490624,8.934675 L64.1754374,8.934675 L64.1754374,5.963175 L61.3490624,5.963175 L61.3490624,2.798925 L57.4599374,2.798925 L57.4599374,5.963175 L55.5515624,5.963175 L55.5515624,8.934675 L57.4843124,8.934675 L57.4843124,10.9008 L53.9728124,10.9008 C53.6990624,7.50705 52.1731874,5.948175 48.6553124,5.948175 C46.7566874,5.948175 44.8108124,6.62805 43.4514374,7.9173 L45.3969374,10.003425 C46.1000624,9.347175 47.1785624,8.807925 48.2803124,8.807925 C49.4754374,8.807925 50.3896874,9.347175 50.3896874,10.4958 L50.3896874,10.6833 C49.3644374,10.6833 48.2765624,10.73655 47.2550624,10.9008 L40.9618124,10.9008 L40.9618124,6.327675 L37.2901874,6.327675 L37.2901874,7.8438 L37.2425624,7.8438 C36.4138124,6.5883 34.9449374,5.996175 33.4764374,5.996175 C30.3954374,5.996175 28.4390624,8.187675 27.9729374,10.9008 L25.7915624,10.9008 C25.2635624,7.766925 23.0203124,5.948175 19.9839374,5.948175 C16.4034374,5.948175 13.6055624,8.41455 13.6055624,12.2793 C13.6055624,16.26255 16.5455624,18.515175 20.1024374,18.515175 C22.4971874,18.515175 24.3466874,17.61405 25.4611874,16.001925 L22.7581874,14.29455 C22.2361874,15.005925 21.3830624,15.52755 20.1500624,15.52755 C18.7509374,15.52755 17.4466874,14.6028 17.3281874,13.298925 L25.8879374,13.298925 C25.8883124,13.29705 25.8883124,13.2948 25.8883124,13.292925 L27.9474374,13.292925 C28.3636874,16.0578 30.3380624,18.242925 33.5000624,18.242925 C35.0634374,18.242925 36.3425624,17.627175 37.0768124,16.679175 L37.1480624,16.679175 L37.1480624,17.3898 C37.1480624,19.3563 36.0819374,20.682675 33.8079374,20.682675 C32.4811874,20.682675 31.0366874,20.185425 29.8996874,19.19055 L27.9571874,21.9618 C29.5441874,23.146425 31.9603124,23.809425 34.0213124,23.809425 C38.2138124,23.809425 40.9618124,21.6303 40.9618124,17.01105 L40.9618124,13.292925 L43.1581874,13.292925 C42.9901874,13.679925 42.8885624,14.115675 42.8885624,14.621175 C42.8885624,17.36355 45.2799374,18.2778 47.1316874,18.2778 C48.5143124,18.2778 49.8504374,17.715675 50.4365624,16.75455 L50.5070624,16.75455 L50.5070624,18.2958 L54.0230624,18.2958 L54.0230624,13.292925 L57.4843124,13.292925 L57.4843124,14.007675 C57.4843124,16.568175 58.5470624,18.283425 61.7596874,18.283425 C62.6053124,18.283425 63.5233124,18.1143 64.0546874,17.921175 L64.0063124,15.02205 C63.7164374,15.1428 63.2334374,15.21555 62.8468124,15.21555 C61.7113124,15.21555 61.3490624,14.635425 61.3490624,13.5243 L61.3490624,13.292925 L66.5788124,13.292925 L66.5788124,18.2433 L70.5016874,18.2433 L70.5016874,13.292925 L74.9566874,13.292925 L76.9048124,18.2433 L81.2833124,18.2433 L83.2318124,13.292925 L86.6203124,13.292925 C87.0789374,16.639425 89.8003124,18.515175 93.0418124,18.515175 C95.4365624,18.515175 97.2856874,17.61405 98.4005624,16.001925 L95.6971874,14.29455 C95.1755624,15.005925 94.3220624,15.52755 93.0890624,15.52755 C91.6899374,15.52755 90.3860624,14.6028 90.2675624,13.298925 L98.8273124,13.298925 C98.8273124,13.29705 98.8273124,13.2948 98.8276874,13.292925 L104.518312,13.292925 C105.178687,13.292925 105.714187,12.757425 105.714187,12.096675 C105.714187,11.435925 105.178687,10.9008 104.518312,10.9008 L104.518312,10.9008 Z" id="Fill-6" fill="#000000" fill-rule="nonzero"></path>
                                    </g>
                                </g>
                            </g>
                        </g>
                    </g>
                </g>
            </g>
        </g>
    </g>
</svg>